<svg width="112" height="297" viewBox="0 -148 112 297" fill="none" xmlns="http://www.w3.org/2000/svg">
<path d="M305.61 152.705C306.195 132.917 302.686 113.215 295.29 94.7641C287.894 76.3134 276.761 59.4877 262.549 45.2819C248.336 31.076 231.332 19.7782 212.541 12.0567C193.751 4.33521 173.555 0.346837 153.149 0.327562C132.742 0.308287 112.538 4.2585 93.7323 11.9445C74.9263 19.6305 57.8997 30.8961 43.6585 45.0751C29.4173 59.2541 18.2506 76.0587 10.8177 94.4955C3.38477 112.932 -0.163588 132.627 0.382063 152.417" stroke="#B74773" stroke-width="0.654983"/>
<path d="M288.524 153.531C289.483 135.767 286.725 117.999 280.417 101.297C274.108 84.5946 264.378 69.3044 251.814 56.3479C239.251 43.3913 224.112 33.0368 207.312 25.9091C190.512 18.7813 172.398 15.028 154.062 14.8757C135.726 14.7234 117.548 18.1753 100.624 25.0229C83.7006 31.8706 68.3819 41.9721 55.5913 54.7181C42.8007 67.4641 32.803 82.5906 26.2003 99.1854C19.5976 115.78 16.5265 133.5 17.172 151.277" stroke="#B74773" stroke-width="0.654983"/>
<path d="M270.992 153.013C270.992 121.377 258.933 91.039 237.473 68.673C216.014 46.3074 186.911 33.7452 156.569 33.7452C126.227 33.7452 97.1244 46.3074 75.6649 68.673C54.2049 91.039 42.1466 121.377 42.1466 153.013" stroke="#B74773" stroke-width="0.654983"/>
<path d="M248.055 152.26C248.781 139.816 246.892 127.358 242.504 115.643C238.115 103.929 231.318 93.2011 222.525 84.1125C213.731 75.0238 203.125 67.7637 191.35 62.7737C179.574 57.7837 166.876 55.168 154.027 55.0858C141.177 55.0036 128.445 57.4566 116.602 62.2955C104.76 67.1344 94.0564 74.2582 85.1401 83.2336C76.2238 92.209 69.2814 102.849 64.7339 114.506C60.1865 126.164 58.1287 138.596 58.6854 151.049" stroke="#B74773" stroke-width="0.654983"/>
<mask id="path-5-inside-1_24_289" fill="white">
<path d="M82.033 151.869C81.2442 142.361 82.5019 132.798 85.7264 123.786C88.9509 114.775 94.0717 106.513 100.763 99.5255C107.455 92.5375 115.571 86.9764 124.597 83.1952C133.622 79.4141 143.36 77.4956 153.19 77.5616C163.021 77.6276 172.73 79.6767 181.7 83.5788C190.671 87.4808 198.707 93.1504 205.299 100.228C211.89 107.305 216.892 115.635 219.988 124.688C223.084 133.742 224.205 143.321 223.28 152.818L222.222 152.721C223.132 143.366 222.028 133.931 218.979 125.013C215.929 116.095 211.002 107.89 204.51 100.919C198.017 93.9484 190.101 88.3638 181.265 84.5203C172.429 80.6768 162.866 78.6584 153.183 78.5934C143.5 78.5284 133.908 80.4181 125.018 84.1425C116.128 87.867 108.134 93.3447 101.542 100.228C94.9511 107.111 89.9072 115.249 86.731 124.125C83.5549 133.001 82.316 142.421 83.093 151.786L82.033 151.869Z"/>
</mask>
<path d="M82.033 151.869C81.2442 142.361 82.5019 132.798 85.7264 123.786C88.9509 114.775 94.0717 106.513 100.763 99.5255C107.455 92.5375 115.571 86.9764 124.597 83.1952C133.622 79.4141 143.36 77.4956 153.19 77.5616C163.021 77.6276 172.73 79.6767 181.7 83.5788C190.671 87.4808 198.707 93.1504 205.299 100.228C211.89 107.305 216.892 115.635 219.988 124.688C223.084 133.742 224.205 143.321 223.28 152.818L222.222 152.721C223.132 143.366 222.028 133.931 218.979 125.013C215.929 116.095 211.002 107.89 204.51 100.919C198.017 93.9484 190.101 88.3638 181.265 84.5203C172.429 80.6768 162.866 78.6584 153.183 78.5934C143.5 78.5284 133.908 80.4181 125.018 84.1425C116.128 87.867 108.134 93.3447 101.542 100.228C94.9511 107.111 89.9072 115.249 86.731 124.125C83.5549 133.001 82.316 142.421 83.093 151.786L82.033 151.869Z" stroke="#B74773" stroke-width="1.30997" mask="url(#path-5-inside-1_24_289)"/>
</svg>
