<svg width="234" height="234" viewBox="0 0 234 234" fill="none" xmlns="http://www.w3.org/2000/svg">
<path d="M-233.404 233.143C-234.298 202.931 -228.941 172.851 -217.649 144.682C-206.357 116.512 -189.36 90.8233 -167.66 69.1344C-145.961 47.4455 -120 30.1965 -91.3116 18.4077C-62.6229 6.61881 -31.7893 0.529535 -0.633155 0.500107C30.523 0.470679 61.3688 6.50169 90.081 18.2363C118.793 29.971 144.789 47.1709 166.532 68.8188C188.274 90.4666 205.323 116.123 216.672 144.272C228.02 172.42 233.437 202.49 232.604 232.703" stroke="pink"/>
<path d="M-207.319 234.404C-208.783 207.283 -204.573 180.155 -194.94 154.655C-185.308 129.155 -170.454 105.811 -151.272 86.0295C-132.09 66.248 -108.978 50.4392 -83.328 39.5568C-57.678 28.6745 -30.0221 22.9441 -2.02738 22.7116C25.9673 22.4791 53.7203 27.7492 79.5586 38.2039C105.397 48.6586 128.785 64.0812 148.313 83.5413C167.841 103.001 183.105 126.096 193.186 151.432C203.267 176.768 207.955 203.822 206.97 230.963" stroke="pink"/>
<path d="M-180.551 233.613C-180.551 185.312 -162.14 138.994 -129.376 104.847C-96.6128 70.6999 -52.1805 51.5205 -5.85523 51.5205C40.47 51.5205 84.9023 70.7 117.666 104.847C150.43 138.994 168.84 185.313 168.84 233.613" stroke="pink"/>
<path d="M-145.532 232.464C-146.641 213.465 -143.757 194.445 -137.057 176.559C-130.356 158.674 -119.979 142.295 -106.553 128.419C-93.1276 114.543 -76.9344 103.459 -58.9565 95.8401C-40.9787 88.2216 -21.5918 84.2281 -1.97356 84.1025C17.6447 83.977 37.0841 87.7221 55.1641 95.11C73.244 102.498 89.5865 113.374 103.199 127.077C116.812 140.781 127.412 157.025 134.355 174.823C141.298 192.621 144.439 211.603 143.589 230.615" stroke="pink"/>
<mask id="path-5-inside-1_0_170" fill="pink">
<path d="M107.943 231.867C109.147 217.35 107.227 202.749 102.304 188.992C97.3811 175.234 89.563 162.62 79.3464 151.951C69.1299 141.282 56.7382 132.792 42.9585 127.019C29.1788 121.246 14.3123 118.317 -0.696602 118.418C-15.7055 118.518 -30.5288 121.647 -44.2248 127.604C-57.9208 133.562 -70.1901 142.218 -80.2535 153.023C-90.3169 163.828 -97.9543 176.546 -102.681 190.368C-107.407 204.191 -109.119 218.816 -107.707 233.315L-106.091 233.167C-107.481 218.886 -105.795 204.48 -101.14 190.864C-96.4842 177.249 -88.9613 164.722 -79.0489 154.079C-69.1365 143.436 -57.0512 134.91 -43.5606 129.042C-30.07 123.174 -15.4691 120.092 -0.685364 119.993C14.0984 119.894 28.7419 122.779 42.3149 128.465C55.8879 134.151 68.0937 142.515 78.157 153.023C88.2203 163.532 95.9212 175.957 100.77 189.508C105.62 203.06 107.511 217.442 106.325 231.74L107.943 231.867Z"/>
</mask>
<path d="M107.943 231.867C109.147 217.35 107.227 202.749 102.304 188.992C97.3811 175.234 89.563 162.62 79.3464 151.951C69.1299 141.282 56.7382 132.792 42.9585 127.019C29.1788 121.246 14.3123 118.317 -0.696602 118.418C-15.7055 118.518 -30.5288 121.647 -44.2248 127.604C-57.9208 133.562 -70.1901 142.218 -80.2535 153.023C-90.3169 163.828 -97.9543 176.546 -102.681 190.368C-107.407 204.191 -109.119 218.816 -107.707 233.315L-106.091 233.167C-107.481 218.886 -105.795 204.48 -101.14 190.864C-96.4842 177.249 -88.9613 164.722 -79.0489 154.079C-69.1365 143.436 -57.0512 134.91 -43.5606 129.042C-30.07 123.174 -15.4691 120.092 -0.685364 119.993C14.0984 119.894 28.7419 122.779 42.3149 128.465C55.8879 134.151 68.0937 142.515 78.157 153.023C88.2203 163.532 95.9212 175.957 100.77 189.508C105.62 203.06 107.511 217.442 106.325 231.74L107.943 231.867Z" stroke="pink" stroke-width="2" mask="url(#path-5-inside-1_0_170)"/>
</svg>
