<svg width="145" height="117" viewBox="0 0 145 117" fill="none" xmlns="http://www.w3.org/2000/svg">
<ellipse cx="136.768" cy="109.16" rx="7.97423" ry="7.84021" transform="rotate(-180 136.768 109.16)" fill="url(#paint0_linear_0_357)"/>
<ellipse cx="104.872" cy="109.16" rx="7.97423" ry="7.84021" transform="rotate(-180 104.872 109.16)" fill="url(#paint1_linear_0_357)"/>
<ellipse cx="72.9748" cy="109.16" rx="7.97423" ry="7.84021" transform="rotate(-180 72.9748 109.16)" fill="url(#paint2_linear_0_357)"/>
<ellipse cx="41.0781" cy="109.16" rx="7.97423" ry="7.84021" transform="rotate(-180 41.0781 109.16)" fill="url(#paint3_linear_0_357)"/>
<ellipse cx="9.1807" cy="109.16" rx="7.97423" ry="7.84021" transform="rotate(-180 9.1807 109.16)" fill="url(#paint4_linear_0_357)"/>
<ellipse cx="104.206" cy="83.8301" rx="7.96944" ry="7.84021" transform="rotate(-180 104.206 83.8301)" fill="url(#paint5_linear_0_357)"/>
<ellipse cx="72.3286" cy="83.8301" rx="7.96944" ry="7.84021" transform="rotate(-180 72.3286 83.8301)" fill="url(#paint6_linear_0_357)"/>
<ellipse cx="40.4512" cy="83.8301" rx="7.96944" ry="7.84021" transform="rotate(-180 40.4512 83.8301)" fill="url(#paint7_linear_0_357)"/>
<ellipse cx="8.57329" cy="83.8301" rx="7.96944" ry="7.84021" transform="rotate(-180 8.57329 83.8301)" fill="url(#paint8_linear_0_357)"/>
<ellipse cx="72.2511" cy="58.5004" rx="7.96082" ry="7.84021" transform="rotate(-180 72.2511 58.5004)" fill="url(#paint9_linear_0_357)"/>
<ellipse cx="40.408" cy="58.5004" rx="7.96082" ry="7.84021" transform="rotate(-180 40.408 58.5004)" fill="url(#paint10_linear_0_357)"/>
<ellipse cx="8.56477" cy="58.5004" rx="7.96082" ry="7.84021" transform="rotate(-180 8.56477 58.5004)" fill="url(#paint11_linear_0_357)"/>
<ellipse cx="39.7036" cy="33.1697" rx="7.94072" ry="7.84021" transform="rotate(-180 39.7036 33.1697)" fill="url(#paint12_linear_0_357)"/>
<ellipse cx="7.94054" cy="33.1697" rx="7.94072" ry="7.84021" transform="rotate(-180 7.94054 33.1697)" fill="url(#paint13_linear_0_357)"/>
<circle cx="8.44382" cy="7.83997" r="7.84021" transform="rotate(-180 8.44382 7.83997)" fill="url(#paint14_linear_0_357)"/>
<defs>
<linearGradient id="paint0_linear_0_357" x1="132.715" y1="110.776" x2="156.272" y2="126.748" gradientUnits="userSpaceOnUse">
<stop stop-color="#B74773"/>
<stop offset="1" stop-color="#904B67" stop-opacity="0"/>
</linearGradient>
<linearGradient id="paint1_linear_0_357" x1="100.818" y1="110.776" x2="124.375" y2="126.748" gradientUnits="userSpaceOnUse">
<stop stop-color="#B74773"/>
<stop offset="1" stop-color="#904B67" stop-opacity="0"/>
</linearGradient>
<linearGradient id="paint2_linear_0_357" x1="68.9213" y1="110.776" x2="92.4787" y2="126.748" gradientUnits="userSpaceOnUse">
<stop stop-color="#B74773"/>
<stop offset="1" stop-color="#904B67" stop-opacity="0"/>
</linearGradient>
<linearGradient id="paint3_linear_0_357" x1="37.0245" y1="110.776" x2="60.5819" y2="126.748" gradientUnits="userSpaceOnUse">
<stop stop-color="#B74773"/>
<stop offset="1" stop-color="#904B67" stop-opacity="0"/>
</linearGradient>
<linearGradient id="paint4_linear_0_357" x1="5.12713" y1="110.776" x2="28.6846" y2="126.748" gradientUnits="userSpaceOnUse">
<stop stop-color="#B74773"/>
<stop offset="1" stop-color="#904B67" stop-opacity="0"/>
</linearGradient>
<linearGradient id="paint5_linear_0_357" x1="100.155" y1="85.4466" x2="123.708" y2="101.406" gradientUnits="userSpaceOnUse">
<stop stop-color="#B74773"/>
<stop offset="1" stop-color="#904B67" stop-opacity="0"/>
</linearGradient>
<linearGradient id="paint6_linear_0_357" x1="68.2774" y1="85.4466" x2="91.8296" y2="101.406" gradientUnits="userSpaceOnUse">
<stop stop-color="#B74773"/>
<stop offset="1" stop-color="#904B67" stop-opacity="0"/>
</linearGradient>
<linearGradient id="paint7_linear_0_357" x1="36.4001" y1="85.4466" x2="59.9523" y2="101.406" gradientUnits="userSpaceOnUse">
<stop stop-color="#B74773"/>
<stop offset="1" stop-color="#904B67" stop-opacity="0"/>
</linearGradient>
<linearGradient id="paint8_linear_0_357" x1="4.52215" y1="85.4466" x2="28.0744" y2="101.406" gradientUnits="userSpaceOnUse">
<stop stop-color="#B74773"/>
<stop offset="1" stop-color="#904B67" stop-opacity="0"/>
</linearGradient>
<linearGradient id="paint9_linear_0_357" x1="68.2044" y1="60.1169" x2="91.7471" y2="76.0522" gradientUnits="userSpaceOnUse">
<stop stop-color="#B74773"/>
<stop offset="1" stop-color="#904B67" stop-opacity="0"/>
</linearGradient>
<linearGradient id="paint10_linear_0_357" x1="36.3612" y1="60.1169" x2="59.904" y2="76.0522" gradientUnits="userSpaceOnUse">
<stop stop-color="#B74773"/>
<stop offset="1" stop-color="#904B67" stop-opacity="0"/>
</linearGradient>
<linearGradient id="paint11_linear_0_357" x1="4.51801" y1="60.1169" x2="28.0608" y2="76.0522" gradientUnits="userSpaceOnUse">
<stop stop-color="#B74773"/>
<stop offset="1" stop-color="#904B67" stop-opacity="0"/>
</linearGradient>
<linearGradient id="paint12_linear_0_357" x1="35.6671" y1="34.7862" x2="59.1877" y2="50.6663" gradientUnits="userSpaceOnUse">
<stop stop-color="#B74773"/>
<stop offset="1" stop-color="#904B67" stop-opacity="0"/>
</linearGradient>
<linearGradient id="paint13_linear_0_357" x1="3.904" y1="34.7862" x2="27.4246" y2="50.6663" gradientUnits="userSpaceOnUse">
<stop stop-color="#B74773"/>
<stop offset="1" stop-color="#904B67" stop-opacity="0"/>
</linearGradient>
<linearGradient id="paint14_linear_0_357" x1="4.45838" y1="9.45651" x2="27.8656" y2="25.06" gradientUnits="userSpaceOnUse">
<stop stop-color="#B74773"/>
<stop offset="1" stop-color="#904B67" stop-opacity="0"/>
</linearGradient>
</defs>
</svg>
