<svg width="24" height="24" viewBox="0 0 24 24" fill="none" xmlns="http://www.w3.org/2000/svg">
<path d="M21.3333 0H2.66667C1.19391 0 0 1.19391 0 2.66667V21.3333C0 22.8061 1.19391 24 2.66667 24H21.3333C22.8061 24 24 22.8061 24 21.3333V2.66667C24 1.19391 22.8061 0 21.3333 0ZM7.33333 19.3333C7.33333 19.7015 7.03486 20 6.66667 20H4.66667C4.29848 20 4 19.7015 4 19.3333V10C4 9.63181 4.29848 9.33333 4.66667 9.33333H6.66667C7.03486 9.33333 7.33333 9.63181 7.33333 10V19.3333ZM5.66667 8C4.5621 8 3.66667 7.10457 3.66667 6C3.66667 4.89543 4.5621 4 5.66667 4C6.77124 4 7.66667 4.89543 7.66667 6C7.66667 7.10457 6.77124 8 5.66667 8ZM20 19.3333C20 19.7015 19.7015 20 19.3333 20H17.3333C16.9651 20 16.6667 19.7015 16.6667 19.3333V14.3333C16.6667 13.2288 15.7712 12.3333 14.6667 12.3333C13.5621 12.3333 12.6667 13.2288 12.6667 14.3333V19.3333C12.6667 19.7015 12.3682 20 12 20H10C9.63181 20 9.33333 19.7015 9.33333 19.3333V10C9.33333 9.63181 9.63181 9.33333 10 9.33333H12C12.3682 9.33333 12.6667 9.63181 12.6667 10V10.8C13.4777 9.56587 14.9027 8.879 16.3733 9.01333C18.4768 9.27269 20.0433 11.081 20 13.2V19.3333Z" fill="white"/>
</svg>
