<svg width="116" height="297" viewBox="0 148 116 297" fill="none" xmlns="http://www.w3.org/2000/svg">
<path d="M115.61 144.206C116.195 163.994 112.686 183.696 105.29 202.147C97.8944 220.598 86.7614 237.423 72.5487 251.629C58.336 265.835 41.332 277.133 22.5415 284.854C3.75089 292.576 -16.4446 296.564 -36.8514 296.583C-57.2582 296.603 -77.4616 292.652 -96.2677 284.966C-115.074 277.28 -132.1 266.015 -146.341 251.836C-160.583 237.657 -171.749 220.852 -179.182 202.415C-186.615 183.979 -190.164 164.284 -189.618 144.494" stroke="#B74773" stroke-width="0.654983"/>
<path d="M98.5244 143.38C99.4834 161.144 96.7254 178.912 90.4165 195.614C84.1076 212.316 74.3783 227.606 61.8145 240.563C49.2507 253.52 34.1125 263.874 17.3122 271.002C0.511927 278.13 -17.6022 281.883 -35.9383 282.035C-54.2744 282.187 -72.4521 278.736 -89.3758 271.888C-106.299 265.04 -121.618 254.939 -134.409 242.193C-147.199 229.447 -157.197 214.32 -163.8 197.725C-170.402 181.131 -173.473 163.411 -172.828 145.634" stroke="#B74773" stroke-width="0.654983"/>
<path d="M80.9916 143.898C80.9916 175.534 68.9332 205.872 47.4733 228.238C26.0138 250.604 -3.08865 263.166 -33.4309 263.166C-63.7732 263.166 -92.8756 250.604 -114.335 228.238C-135.795 205.872 -147.853 175.534 -147.853 143.898" stroke="#B74773" stroke-width="0.654983"/>
<path d="M58.0553 144.651C58.7811 157.095 56.8925 169.553 52.5038 181.267C48.1152 192.982 41.318 203.71 32.5245 212.798C23.731 221.887 13.1247 229.147 1.34955 234.137C-10.4257 239.127 -23.1237 241.743 -35.9734 241.825C-48.823 241.907 -61.5555 239.454 -73.3975 234.615C-85.2396 229.776 -95.9436 222.653 -104.86 213.677C-113.776 204.702 -120.719 194.062 -125.266 182.405C-129.814 170.747 -131.871 158.315 -131.315 145.862" stroke="#B74773" stroke-width="0.654983"/>
<mask id="path-5-inside-1_24_283" fill="white">
<path d="M-107.967 145.042C-108.756 154.55 -107.498 164.113 -104.274 173.124C-101.049 182.136 -95.9283 190.398 -89.2367 197.385C-82.545 204.373 -74.4286 209.935 -65.4032 213.716C-56.3777 217.497 -46.6404 219.415 -36.8098 219.349C-26.9792 219.283 -17.2703 217.234 -8.29961 213.332C0.671048 209.43 8.70728 203.76 15.2986 196.683C21.89 189.606 26.8923 181.276 29.9879 172.223C33.0836 163.169 34.2048 153.59 33.2804 144.093L32.2216 144.19C33.1322 153.544 32.0278 162.98 28.9786 171.898C25.9294 180.816 21.0021 189.02 14.5096 195.991C8.01717 202.962 0.101475 208.547 -8.73462 212.391C-17.5707 216.234 -27.1341 218.252 -36.8172 218.317C-46.5003 218.383 -56.0915 216.493 -64.9816 212.768C-73.8717 209.044 -81.8663 203.566 -88.4576 196.683C-95.0489 189.8 -100.093 181.662 -103.269 172.786C-106.445 163.91 -107.684 154.49 -106.907 145.125L-107.967 145.042Z"/>
</mask>
<path d="M-107.967 145.042C-108.756 154.55 -107.498 164.113 -104.274 173.124C-101.049 182.136 -95.9283 190.398 -89.2367 197.385C-82.545 204.373 -74.4286 209.935 -65.4032 213.716C-56.3777 217.497 -46.6404 219.415 -36.8098 219.349C-26.9792 219.283 -17.2703 217.234 -8.29961 213.332C0.671048 209.43 8.70728 203.76 15.2986 196.683C21.89 189.606 26.8923 181.276 29.9879 172.223C33.0836 163.169 34.2048 153.59 33.2804 144.093L32.2216 144.19C33.1322 153.544 32.0278 162.98 28.9786 171.898C25.9294 180.816 21.0021 189.02 14.5096 195.991C8.01717 202.962 0.101475 208.547 -8.73462 212.391C-17.5707 216.234 -27.1341 218.252 -36.8172 218.317C-46.5003 218.383 -56.0915 216.493 -64.9816 212.768C-73.8717 209.044 -81.8663 203.566 -88.4576 196.683C-95.0489 189.8 -100.093 181.662 -103.269 172.786C-106.445 163.91 -107.684 154.49 -106.907 145.125L-107.967 145.042Z" stroke="#B74773" stroke-width="1.30997" mask="url(#path-5-inside-1_24_283)"/>
</svg>
